# xmcd CD database file
#
# Track frame offsets:
#	150
#	27244
#	43068
#	60592
#	76952
#	98311
#	114085
#	138135
#	165876
#
# Disc length: 2552 seconds
#
# Revision: 3
# Processed by: cddbd v1.4PL0 Copyright (c) Steve Scherf et al.
# Submitted via: CDex 1.40Release
#
DISCID=5809f609
DTITLE=Fiorella Mannoia - Fragile
DYEAR=2001
DGENRE=Folk
TTITLE0=Fragile
TTITLE1=Occhi neri
TTITLE2=Fotogramma (Quelli siamo noi)
TTITLE3=Come mi vuoi?
TTITLE4=Lìassenza
TTITLE5=L'uccisione di Babbo Natale
TTITLE6=Il Pescatore
TTITLE7=Lìaltra metà (Notte di guerra in europa)
TTITLE8=L'uomo di polvere
EXTD=YEAR: 2001 ID3G: 80
EXTT0=
EXTT1=
EXTT2=
EXTT3=
EXTT4=
EXTT5=
EXTT6=
EXTT7=
EXTT8=
PLAYORDER=
